<svg version="1.1" id="Layer_1" xmlns="http://www.w3.org/2000/svg" xmlns:xlink="http://www.w3.org/1999/xlink" x="0px" y="0px"
	 width="100%" viewBox="0 0 366 500" enable-background="new 0 0 366 500" xml:space="preserve">
<path fill="#FFFEFE" opacity="1.000000" stroke="none" 
	d="
M183.930771,1.414231 
	C243.651566,1.000000 303.303192,1.033722 362.954529,0.910138 
	C366.277771,0.903253 367.102661,1.435493 367.100189,4.952744 
	C366.985016,168.911148 366.981720,332.869659 367.112976,496.828064 
	C367.116028,500.649109 366.063843,501.081818 362.673920,501.079132 
	C243.537491,500.984467 124.400955,500.980591 5.264559,501.093903 
	C1.701244,501.097290 0.897358,500.414795 0.899932,496.766571 
	C1.015496,332.974762 1.018499,169.182877 0.890595,5.391096 
	C0.887479,1.400895 2.057686,0.909845 5.606876,0.916889 
	C64.425301,1.033633 123.244026,1.000000 182.531342,1.000000 
	C183.461792,3.152045 181.955093,4.393929 180.742447,5.719529 
	C162.400894,25.769558 142.529999,44.269951 122.768860,62.880917 
	C112.824722,72.246262 103.202866,81.949478 93.389847,91.446663 
	C78.787193,105.579315 64.127754,119.667671 49.498890,133.771713 
	C37.273918,145.558105 25.572811,157.918289 12.635905,168.956497 
	C8.939529,172.110397 7.344351,175.758575 7.350543,180.700577 
	C7.451196,261.031616 7.418268,341.362793 7.430885,421.693970 
	C7.431914,428.243073 7.747583,428.563293 14.118651,428.568573 
	C38.617970,428.588928 63.117336,428.594299 87.616638,428.565399 
	C94.045494,428.557831 94.538162,428.082642 94.561501,421.837097 
	C94.608841,409.170959 94.616348,396.504364 94.557251,383.838257 
	C94.530357,378.074615 93.931801,377.488281 88.291481,377.439392 
	C80.958824,377.375854 73.625252,377.446014 66.292221,377.415894 
	C58.179909,377.382568 57.589252,376.802948 57.586010,368.493469 
	C57.567989,322.328064 57.577637,276.162628 57.578312,229.997223 
	C57.578445,220.664154 57.694328,211.328842 57.531391,201.998962 
	C57.451885,197.446335 59.176582,194.075592 62.460140,191.064270 
	C79.280678,175.638306 95.419678,159.499207 111.846519,143.660706 
	C133.551407,122.733185 155.474060,102.030945 176.808365,80.720963 
	C177.634094,79.896172 178.524460,79.140640 179.448120,78.425812 
	C184.036819,74.874527 184.723877,74.959045 189.297653,78.692215 
	C193.437744,82.071419 197.280563,85.751297 201.058151,89.520493 
	C224.880615,113.290039 249.404510,136.340744 273.601044,159.722809 
	C284.728577,170.475784 295.176270,181.988052 307.203522,191.807602 
	C310.633759,194.608200 311.465027,198.269379 311.455231,202.495407 
	C311.392914,229.327835 311.421204,256.160522 311.422150,282.993134 
	C311.423157,311.492371 311.435669,339.991577 311.414246,368.490814 
	C311.407990,376.798828 310.822083,377.405884 302.718201,377.412720 
	C274.552307,377.436432 246.386383,377.437286 218.220490,377.412140 
	C210.292892,377.405060 209.601227,376.730988 209.590500,368.918915 
	C209.557327,344.752930 209.723160,320.585419 209.475616,296.421967 
	C209.414536,290.457855 211.433258,286.924927 216.884338,284.361328 
	C229.735260,278.317596 239.884384,269.260956 246.308990,256.288361 
	C255.407791,237.915924 252.606705,215.119278 239.025177,199.700516 
	C233.474686,193.399200 227.117584,188.060547 219.507858,184.333847 
	C213.112213,181.201736 212.438934,181.566879 212.428574,188.497406 
	C212.407928,202.330338 212.435471,216.163315 212.418182,229.996262 
	C212.403488,241.751129 208.993286,247.427307 198.066757,251.286743 
	C187.860809,254.891632 177.460815,254.813126 167.500320,249.775543 
	C160.247009,246.107162 156.668106,240.122513 156.612381,232.067307 
	C156.513229,217.734787 156.591858,203.401581 156.575272,189.068680 
	C156.573532,187.569656 156.647125,186.065598 156.440811,184.574631 
	C156.208206,182.893646 155.176987,182.351944 153.596130,182.677094 
	C153.106583,182.777786 152.622955,182.922760 152.169052,183.131500 
	C122.443069,196.799957 109.921181,227.308411 121.669662,254.140457 
	C127.712257,267.940979 138.074356,277.630615 151.391800,283.878479 
	C157.680527,286.828827 159.614090,290.528412 159.567108,297.260956 
	C159.278580,338.591156 159.417389,379.924377 159.427078,421.256592 
	C159.428757,428.455597 159.538300,428.571259 166.621613,428.572235 
	C229.286575,428.580902 291.951538,428.581451 354.616516,428.571472 
	C361.371307,428.570404 361.570160,428.371490 361.570984,421.498627 
	C361.580505,341.334137 361.559845,261.169586 361.630432,181.005173 
	C361.634064,176.884277 360.388092,173.822128 357.462036,170.835739 
	C341.015167,154.049896 323.748169,138.108932 306.949890,121.688210 
	C287.536194,102.710831 267.993927,83.854309 248.381317,65.081352 
	C227.563828,45.155117 206.982864,24.985731 186.135651,5.092113 
	C185.147827,4.149449 184.147400,3.246174 183.930771,1.414231 
z"/>
<path fill="#FF7D0B" opacity="1.000000" stroke="none" 
	d="
M183.750000,1.000000 
	C224.014114,39.678005 264.028900,78.355309 304.042053,117.034332 
	C322.851776,135.216873 341.632233,153.429886 360.506836,171.544815 
	C362.374329,173.337173 363.054932,175.173386 363.053680,177.675766 
	C363.011566,260.332184 362.985931,342.988678 363.114929,425.644897 
	C363.121490,429.841339 361.057617,429.600830 358.208557,429.598358 
	C312.714172,429.558624 267.219727,429.543976 221.725342,429.582672 
	C202.236099,429.599243 182.743515,429.578003 163.260330,429.968109 
	C158.611343,430.061188 157.901611,428.559174 157.916229,424.374847 
	C158.067108,381.214020 157.921509,338.052002 158.135788,294.891693 
	C158.158752,290.265015 156.932159,287.959076 152.652130,286.059998 
	C136.785004,279.019714 124.941864,267.780304 118.859589,251.203049 
	C111.176422,230.262543 118.641441,205.440414 136.745438,191.076691 
	C142.119980,186.812515 147.922379,183.339859 154.261230,180.627563 
	C157.668793,179.169495 158.133774,180.128799 158.112915,183.307175 
	C158.012253,198.637955 158.065674,213.969788 158.068878,229.301239 
	C158.071594,242.239532 162.976212,248.756271 175.729111,251.326096 
	C184.296600,253.052521 193.020187,253.058151 201.045380,248.673141 
	C207.473312,245.160904 211.239090,240.105927 211.109818,232.240738 
	C210.844223,216.080429 211.128937,199.911652 210.961121,183.748718 
	C210.920456,179.831375 211.770752,179.264221 215.353348,180.878204 
	C234.745605,189.614456 248.536087,203.219589 252.148239,224.813110 
	C256.080933,248.322952 246.372589,266.288635 227.593643,279.903015 
	C223.411026,282.935333 218.802246,285.332855 214.014618,287.266510 
	C211.761963,288.176392 211.151077,289.511719 211.156082,291.791077 
	C211.215164,318.620972 211.240265,345.451263 211.130112,372.280853 
	C211.117462,375.363464 212.054199,376.226807 215.089813,376.217041 
	C245.419128,376.119446 275.749054,376.112061 306.078247,376.225098 
	C309.267517,376.237000 309.926025,375.150848 309.921967,372.188446 
	C309.843353,314.862274 309.850159,257.535919 309.909027,200.209671 
	C309.911621,197.671692 309.167511,195.854660 307.333862,194.090759 
	C267.223938,155.507034 227.129181,116.907288 187.168655,78.169144 
	C184.429764,75.514038 183.268585,76.761574 181.322693,78.643646 
	C144.910965,113.861168 108.795853,149.397476 71.789368,183.979630 
	C62.319607,192.829025 58.689518,201.558762 58.874611,214.425827 
	C59.617596,266.075470 59.168308,317.742065 59.196609,369.402405 
	C59.200806,377.061859 58.185902,376.097076 65.695580,376.145386 
	C74.360825,376.201141 83.029457,376.283508 91.690849,376.092651 
	C94.815857,376.023773 95.668350,377.112183 95.645515,380.103210 
	C95.529785,395.267120 95.527206,410.432953 95.647339,425.596802 
	C95.671104,428.597473 94.811943,429.642487 91.695045,429.630585 
	C64.365456,429.525970 37.035042,429.513641 9.705666,429.641846 
	C6.410112,429.657288 5.947203,428.411743 5.949505,425.542328 
	C6.015835,342.885834 6.013385,260.229309 5.957077,177.572800 
	C5.955094,174.663177 6.977836,172.664780 9.048957,170.672165 
	C59.602879,122.034660 110.130493,73.369659 160.568817,24.612339 
	C168.230682,17.205837 175.429062,9.319913 182.920914,1.327871 
	C183.000000,1.000000 183.500000,1.000000 183.750000,1.000000 
z"/>
<path fill="#FF8216" opacity="1.000000" stroke="none" 
	d="
M317.204590,478.014404 
	C317.204590,476.019592 317.204529,474.521851 317.204498,473.024078 
	C317.204346,464.551880 317.199158,464.657501 325.609253,465.069550 
	C327.873016,465.180450 328.771393,466.102264 329.490906,468.043213 
	C331.668213,473.916473 334.015778,479.726654 336.570618,486.261261 
	C339.008942,479.835754 341.307465,474.145782 343.325348,468.357971 
	C345.346863,462.559692 350.047668,465.565552 353.509491,465.315491 
	C357.072144,465.058197 355.585663,468.455902 355.623260,470.249542 
	C355.790588,478.234100 355.451843,486.234619 355.792633,494.208099 
	C355.978790,498.563568 353.476715,497.993591 350.774475,498.059662 
	C348.013550,498.127167 345.872070,498.083740 346.252045,494.232971 
	C346.592163,490.786194 346.323639,487.279388 346.323639,482.757019 
	C343.779480,486.260834 343.352539,489.531097 342.218903,492.470428 
	C341.117615,495.325867 341.021667,498.316162 336.341675,498.225372 
	C331.960266,498.140381 331.771057,495.438232 330.841034,492.690094 
	C329.805664,489.630402 328.669617,486.604828 326.546753,483.729614 
	C326.546753,487.472534 326.380920,491.224823 326.591614,494.955841 
	C326.819458,498.990234 324.006775,498.002197 321.894806,497.980560 
	C319.811981,497.959259 317.002655,499.058502 317.155731,494.984924 
	C317.361786,489.500916 317.205353,484.003265 317.204590,478.014404 
z"/>
<path fill="#FF7E0E" opacity="1.000000" stroke="none" 
	d="
M177.498322,469.432556 
	C179.027756,465.864838 186.552200,463.467651 189.246307,465.413208 
	C190.395477,466.243073 190.018753,467.526520 190.022522,468.638580 
	C190.051743,477.301453 189.832153,485.971466 190.126587,494.624420 
	C190.272614,498.915833 187.608795,497.944061 185.282196,497.999542 
	C182.972626,498.054596 180.557098,498.566284 180.895493,494.678589 
	C181.236450,490.761536 180.970566,486.791687 180.158432,482.635254 
	C178.763947,486.601257 177.201660,490.518646 176.034180,494.550354 
	C175.260376,497.222626 173.989365,498.151245 171.134171,498.122284 
	C168.205063,498.092590 166.650345,497.366669 165.852005,494.379730 
	C164.793762,490.420471 163.213470,486.600739 160.986938,482.785248 
	C160.986938,486.609894 160.694321,490.463409 161.068237,494.251129 
	C161.451492,498.133392 159.333969,498.189972 156.592072,498.023743 
	C154.225861,497.880280 151.637390,498.839203 151.803070,494.544098 
	C152.136703,485.893982 151.977844,477.220947 151.856506,468.559692 
	C151.820618,465.997864 152.636337,465.314331 155.231354,465.049469 
	C160.781097,464.483032 164.192261,465.906097 165.556335,471.898163 
	C166.573502,476.366425 168.801910,480.558929 171.078751,486.376099 
	C173.467590,480.027618 175.394409,474.906982 177.498322,469.432556 
z"/>
<path fill="#FF7F10" opacity="1.000000" stroke="none" 
	d="
M221.491913,497.823181 
	C219.895538,487.757050 220.859756,477.797943 220.581543,467.859253 
	C220.542419,466.461884 220.737061,464.959045 222.639771,465.215240 
	C225.539215,465.605621 228.922012,463.677826 231.163910,467.379517 
	C234.247879,472.471558 237.648941,477.371582 241.875336,482.226654 
	C241.875336,477.876190 242.150208,473.503113 241.795273,469.181793 
	C241.463745,465.145355 243.584396,465.070404 246.584717,465.083801 
	C249.449432,465.096619 251.184738,465.299866 251.050842,469.004089 
	C250.762787,476.973267 251.066284,484.962494 250.877914,492.937622 
	C250.838684,494.598480 252.397415,497.642426 249.376083,497.808075 
	C246.379639,497.972412 242.733490,499.668762 240.333191,495.864441 
	C237.261490,490.995941 233.982468,486.258240 229.817383,481.626434 
	C229.817383,485.325867 229.473953,489.065826 229.904221,492.714508 
	C230.443237,497.285614 228.676712,498.748230 224.405029,498.026611 
	C223.594788,497.889709 222.746155,497.980164 221.491913,497.823181 
z"/>
<path fill="#FF7F10" opacity="1.000000" stroke="none" 
	d="
M98.263100,498.007111 
	C95.557716,498.187286 95.550827,496.657684 95.552559,495.076477 
	C95.562218,486.246124 95.616737,477.415131 95.520790,468.585815 
	C95.493416,466.067169 96.245552,464.970856 98.933662,465.107849 
	C102.756111,465.302673 106.600540,465.046265 110.425850,465.209839 
	C116.348213,465.463104 120.580696,468.186981 121.683464,472.638428 
	C122.930672,477.673004 121.678978,481.957886 116.777740,484.470032 
	C114.912514,485.426025 115.608635,486.386322 116.276497,487.545197 
	C118.163765,490.820007 120.048012,494.096527 122.362022,498.117035 
	C118.077057,497.196106 113.967300,500.072815 111.208908,496.107391 
	C109.134003,493.124573 107.656502,489.726135 105.662857,486.051514 
	C104.288071,488.144287 104.644341,490.178192 104.897781,491.891388 
	C105.648460,496.965851 103.755836,498.981567 98.263100,498.007111 
z"/>
<path fill="#FF7F10" opacity="1.000000" stroke="none" 
	d="
M79.751114,494.437988 
	C78.138748,491.502197 76.707977,488.908997 75.277199,486.315796 
	C74.895943,486.356781 74.514687,486.397766 74.133430,486.438782 
	C74.133430,489.291382 73.962990,492.156677 74.173965,494.993591 
	C74.479118,499.096771 71.557388,497.899963 69.499069,497.979828 
	C67.291756,498.065460 64.850830,498.761475 64.960625,494.817047 
	C65.206024,486.001160 65.056236,477.173645 65.022682,468.351044 
	C65.015724,466.521729 65.113266,465.058868 67.583458,465.135712 
	C72.239220,465.280579 76.927544,464.970428 81.550926,465.401123 
	C86.324936,465.845886 90.128937,468.084747 91.308617,473.251770 
	C92.400658,478.034912 90.899315,481.829590 86.627663,484.262085 
	C84.772400,485.318573 84.984337,486.253082 85.920189,487.778717 
	C87.805779,490.852692 89.526482,494.027771 91.836304,498.073975 
	C87.103355,497.126831 82.415703,500.614044 79.751114,494.437988 
z"/>
<path fill="#FF7E0E" opacity="1.000000" stroke="none" 
	d="
M288.726349,495.421448 
	C285.207397,492.340942 283.973816,488.684662 283.980133,484.499786 
	C283.988159,479.180389 284.198364,473.848480 283.901215,468.545532 
	C283.661926,464.275574 286.450500,465.289062 288.787933,465.147003 
	C291.326141,464.992706 293.309448,465.014557 293.081787,468.637726 
	C292.780060,473.439453 293.053772,478.275085 292.993652,483.095032 
	C292.949860,486.607727 293.718079,489.680725 297.898773,489.726379 
	C301.989288,489.770996 303.077118,486.911804 303.026123,483.290558 
	C302.955933,478.304626 303.203613,473.307312 302.954224,468.333008 
	C302.756165,464.383148 305.354340,465.182709 307.550903,465.175781 
	C309.762238,465.168793 312.355835,464.408203 312.143829,468.345428 
	C311.893951,472.986420 312.102600,477.651276 312.082916,482.305695 
	C312.024139,496.182281 301.185883,502.459473 288.726349,495.421448 
z"/>
<path fill="#FF8114" opacity="1.000000" stroke="none" 
	d="
M48.055759,498.016968 
	C39.538994,498.016846 39.538956,498.016846 39.538940,489.880646 
	C39.538929,483.231689 39.783092,476.570435 39.449070,469.938324 
	C39.243145,465.849670 40.752708,464.805328 44.550507,465.074554 
	C48.850754,465.379425 53.195568,465.289337 57.508755,465.096710 
	C60.437222,464.965881 60.739140,466.507111 60.676830,468.796295 
	C60.619057,470.918945 60.708900,472.883057 57.659878,472.706360 
	C55.506779,472.581573 53.336994,472.768890 51.179665,472.686127 
	C49.011566,472.602997 48.825047,473.890717 48.821590,475.571045 
	C48.818165,477.235626 49.453796,478.016327 51.163609,477.932709 
	C52.490036,477.867889 53.825466,477.984558 55.151588,477.916809 
	C57.463585,477.798615 59.248600,477.741058 59.216362,481.123596 
	C59.186428,484.263763 58.158077,484.895538 55.204205,485.078461 
	C53.054928,485.211487 49.076794,482.464508 48.826012,487.713715 
	C48.732746,489.665924 49.163857,490.956207 51.517693,490.806213 
	C53.338573,490.690155 55.187717,490.935822 56.998158,490.756592 
	C59.844185,490.474823 60.722271,491.602600 60.734943,494.426666 
	C60.747696,497.268951 59.857716,498.284363 57.016315,498.064270 
	C54.207382,497.846741 51.368416,498.016876 48.055759,498.016968 
z"/>
<path fill="#FF8215" opacity="1.000000" stroke="none" 
	d="
M139.963867,472.691895 
	C137.465439,472.682098 135.388077,472.390228 135.535309,475.574799 
	C135.674377,478.582642 137.835266,477.579254 139.455521,477.970764 
	C141.919022,478.565979 146.308212,475.584534 146.048691,481.590912 
	C145.935104,484.219696 145.159012,485.205963 142.572388,484.942474 
	C141.090363,484.791565 139.575256,484.996826 138.082642,484.910614 
	C136.073898,484.794586 135.522720,485.804626 135.532410,487.626831 
	C135.542618,489.543488 135.909805,490.905365 138.248367,490.791351 
	C139.908539,490.710449 141.590866,490.925354 143.237289,490.755768 
	C146.137497,490.457031 147.287582,491.291412 147.341919,494.530243 
	C147.402237,498.125702 145.574890,498.103912 143.032471,498.047363 
	C138.540939,497.947449 134.040588,497.890900 129.553772,498.066925 
	C126.911682,498.170532 126.120377,497.222900 126.159828,494.631592 
	C126.291550,485.979004 126.316261,477.321075 126.150826,468.669647 
	C126.093773,465.685608 127.291054,464.985291 129.985672,465.096405 
	C134.139481,465.267731 138.305634,465.155731 142.466400,465.135742 
	C144.951401,465.123810 147.293472,464.572021 147.355194,468.662720 
	C147.416824,472.745605 145.413116,472.972870 142.441025,472.700317 
	C141.780853,472.639771 141.110352,472.691528 139.963867,472.691895 
z"/>
<path fill="#FF8215" opacity="1.000000" stroke="none" 
	d="
M216.193787,493.037598 
	C216.718979,496.769928 215.805832,498.372375 212.043533,498.099548 
	C207.407578,497.763397 202.727234,497.945343 198.069290,498.048553 
	C195.915649,498.096252 195.158844,497.298309 195.177917,495.147278 
	C195.257645,486.160339 195.270065,477.171661 195.173584,468.185059 
	C195.147003,465.709045 196.195786,465.055664 198.469955,465.108826 
	C203.294006,465.221680 208.127594,465.275909 212.947281,465.092163 
	C215.718307,464.986542 216.324097,466.196777 216.262283,468.651184 
	C216.202942,471.007507 216.272095,473.039062 212.951462,472.724854 
	C210.972916,472.537628 208.959488,472.752502 206.963730,472.704529 
	C204.881943,472.654541 204.537933,473.878113 204.555725,475.595856 
	C204.573303,477.292328 205.347763,477.976318 206.991348,477.924896 
	C208.487656,477.878143 209.995682,478.028595 211.482727,477.903839 
	C213.886627,477.702087 215.138870,478.271362 215.049133,481.113312 
	C214.968246,483.674927 214.667618,485.352783 211.548706,484.943268 
	C210.239990,484.771454 208.885071,484.987518 207.559006,484.903442 
	C205.554626,484.776337 204.509567,485.365662 204.506989,487.649536 
	C204.504288,490.044281 205.433578,490.947266 207.771362,490.808960 
	C209.761261,490.691193 211.764282,490.797516 213.761490,490.799408 
	C214.996643,490.800598 216.145187,490.911041 216.193787,493.037598 
z"/>
<path fill="#FF8215" opacity="1.000000" stroke="none" 
	d="
M30.791735,465.140961 
	C34.373310,464.748199 36.096138,465.350983 36.037998,469.253357 
	C35.974884,473.489563 33.348511,472.552063 31.017529,472.621307 
	C29.025064,472.680542 27.029293,472.685730 25.036150,472.649933 
	C22.799637,472.609833 22.871838,474.122986 22.832144,475.683563 
	C22.791567,477.278778 23.282221,478.227936 25.070490,478.136230 
	C26.230301,478.076782 27.407284,478.241089 28.557087,478.120026 
	C31.170954,477.844818 32.493916,478.531372 32.485229,481.570221 
	C32.477100,484.414185 31.544067,485.673004 28.772518,485.115387 
	C22.069054,483.766815 22.390490,488.227905 22.893524,492.408783 
	C23.444033,496.984192 21.832619,498.414154 17.234629,498.167114 
	C13.989040,497.992737 13.426441,496.891205 13.479520,494.044159 
	C13.631270,485.904480 13.671551,477.756683 13.466380,469.619324 
	C13.381574,466.255798 14.221122,464.801086 17.860743,465.070343 
	C21.992464,465.376007 26.164188,465.140930 30.791735,465.140961 
z"/>
<path fill="#FF8114" opacity="1.000000" stroke="none" 
	d="
M272.020996,487.972900 
	C272.020966,490.129578 271.819641,491.822388 272.061584,493.449249 
	C272.617706,497.188812 271.205139,498.158569 267.465759,498.174225 
	C263.662170,498.190125 262.637360,497.100464 262.854279,493.412598 
	C263.175903,487.944092 262.722168,482.431183 263.013977,476.959320 
	C263.204132,473.393127 261.960602,472.130890 258.530945,472.614624 
	C255.600967,473.027924 253.971100,472.361389 254.039581,468.701477 
	C254.104721,465.220917 255.762421,465.064270 258.386932,465.108551 
	C264.703979,465.215179 271.028381,465.281616 277.340942,465.082336 
	C280.326233,464.988068 280.936981,466.195312 280.949036,468.884125 
	C280.961212,471.602203 280.265076,473.118530 277.337341,472.611206 
	C272.901886,471.842621 271.427399,473.634949 271.948975,478.009399 
	C272.320404,481.124512 272.020996,484.319641 272.020996,487.972900 
z"/>
<path fill="#FFF8F2" opacity="1.000000" stroke="none" 
	d="
M108.614464,479.801758 
	C105.146408,480.302032 104.599426,478.623077 104.752106,476.057953 
	C104.856712,474.300507 104.766403,472.762634 107.265121,472.906555 
	C109.571503,473.039337 112.214584,472.627930 112.789871,475.686432 
	C113.299171,478.394104 111.456001,479.486572 108.614464,479.801758 
z"/>
<path fill="#FFF5ED" opacity="1.000000" stroke="none" 
	d="
M74.095383,476.836731 
	C73.626610,473.444031 75.077522,472.646729 77.787460,472.887299 
	C79.881042,473.073151 81.867104,473.152740 82.193604,475.828857 
	C82.427315,477.744385 81.674744,479.350128 79.731110,479.474091 
	C77.664940,479.605835 74.499184,481.672516 74.095383,476.836731 
z"/>
</svg>