<svg version="1.1" id="Layer_1" xmlns="http://www.w3.org/2000/svg" xmlns:xlink="http://www.w3.org/1999/xlink" x="0px" y="0px"
	 width="100%" viewBox="0 0 500 500" enable-background="new 0 0 500 500" xml:space="preserve">
<path fill="#FEFEFE" opacity="1.000000" stroke="none" 
	d="
M253.950256,1.439286 
	C334.982239,1.000000 415.964539,1.024503 496.946625,0.912151 
	C500.252655,0.907564 501.103577,1.411697 501.101074,4.945061 
	C500.984802,168.909027 500.981262,332.873108 501.114777,496.837067 
	C501.117889,500.683777 500.029785,501.078308 496.664673,501.076508 
	C332.867279,500.989014 169.069839,500.986176 5.272483,501.091675 
	C1.730550,501.093933 0.895655,500.444000 0.898289,496.774231 
	C1.015849,332.976868 1.018768,169.179413 0.889512,5.382094 
	C0.886348,1.372287 2.083181,0.914295 5.616125,0.918810 
	C87.764877,1.023806 169.913803,1.000000 252.531342,1.000000 
	C253.462296,3.151797 251.954193,4.391996 250.744049,5.720099 
	C232.778275,25.437250 213.253326,43.574066 193.835815,61.819336 
	C183.881424,71.172798 174.277298,80.892601 164.457794,90.382919 
	C150.205780,104.157181 135.922241,117.914749 121.635147,131.650940 
	C108.912598,143.882904 96.766068,156.738922 83.333206,168.220108 
	C79.092758,171.844452 77.310669,175.983429 77.321457,181.689163 
	C77.472015,261.349274 77.421806,341.009796 77.426620,420.670197 
	C77.427094,428.530670 77.467621,428.570587 85.102745,428.573151 
	C109.100861,428.581146 133.098999,428.588196 157.097092,428.568817 
	C164.180420,428.563110 164.549194,428.209106 164.566193,421.350830 
	C164.597183,408.851898 164.617111,396.352631 164.555801,383.853882 
	C164.527603,378.103363 163.912094,377.495544 158.288025,377.442291 
	C150.955826,377.372864 143.622559,377.448578 136.289932,377.416595 
	C128.185684,377.381256 127.587509,376.792816 127.584648,368.485992 
	C127.567497,318.656586 127.577026,268.827148 127.576691,218.997726 
	C127.576660,213.831467 127.770073,208.655869 127.528397,203.501419 
	C127.252998,197.628006 129.417053,193.161285 134.167877,189.805161 
	C136.076431,188.456909 137.714386,186.777710 139.357803,185.119431 
	C164.572235,159.676666 190.906937,135.386505 216.463791,110.292297 
	C225.846039,101.079910 235.287460,91.903755 244.738510,82.749001 
	C245.456757,82.053284 246.168961,81.351357 246.918716,80.689171 
	C254.068344,74.374573 254.006821,74.448547 261.239136,80.479431 
	C264.960907,83.582909 268.438232,86.919136 271.859100,90.333176 
	C295.796082,114.222305 320.462738,137.362350 344.759552,160.879257 
	C355.640137,171.410599 365.953918,182.571518 377.565918,192.355194 
	C379.969116,194.380005 381.168762,197.094360 381.332855,200.254929 
	C381.445343,202.420517 381.421539,204.586609 381.421661,206.752701 
	C381.424286,259.915192 381.423828,313.077698 381.423340,366.240173 
	C381.423309,367.740051 381.454803,369.240875 381.400757,370.739594 
	C381.202881,376.229187 380.306183,377.346161 374.986420,377.365631 
	C345.322479,377.474091 315.657990,377.479248 285.994080,377.361938 
	C280.847961,377.341583 279.674530,376.215057 279.647736,371.180573 
	C279.510315,345.349915 279.605530,319.518463 279.564240,293.687500 
	C279.556488,288.824707 282.397186,286.628418 286.242645,284.788757 
	C298.078369,279.126526 307.867493,271.126404 314.643860,259.688629 
	C325.878479,240.725708 323.403290,215.545105 308.580841,199.190781 
	C302.590057,192.580917 295.782104,187.013931 287.537628,183.412155 
	C283.434937,181.619797 282.491180,182.185104 282.460846,186.710724 
	C282.363739,201.209061 282.443481,215.708252 282.418884,230.207092 
	C282.399414,241.680145 279.059235,247.256577 268.338715,251.176804 
	C258.155060,254.900726 247.764725,254.843399 237.764465,249.914734 
	C230.289108,246.230469 226.639236,240.139587 226.600983,231.869141 
	C226.533920,217.370438 226.600876,202.871460 226.569992,188.372681 
	C226.555939,181.775757 225.773773,181.320847 219.716736,184.232346 
	C195.600693,195.824417 182.841537,221.151215 188.905121,246.249664 
	C192.352905,260.520813 201.195816,271.176849 213.194916,279.300385 
	C216.778824,281.726715 220.507202,284.011261 224.538757,285.612000 
	C228.195038,287.063721 229.638504,289.583588 229.426834,293.361572 
	C229.333847,295.021515 229.423355,296.693481 229.423370,298.360016 
	C229.424042,339.356812 229.417709,380.353577 229.429199,421.350372 
	C229.431183,428.439789 229.566620,428.570801 236.731689,428.571747 
	C299.226776,428.579773 361.721893,428.578918 424.216980,428.572571 
	C431.445251,428.571838 431.569763,428.461426 431.570526,421.403412 
	C431.579315,341.243042 431.555664,261.082642 431.634857,180.922348 
	C431.639130,176.599487 430.220764,173.556305 427.147003,170.436905 
	C411.706146,154.767044 395.538788,139.851013 379.806122,124.487267 
	C358.594666,103.773178 337.275696,83.162903 315.889679,62.628902 
	C295.704407,43.247814 275.571350,23.814976 255.521179,4.295081 
	C254.809540,3.602261 254.172485,2.864033 253.950256,1.439286 
z"/>
<path fill="#010101" opacity="1.000000" stroke="none" 
	d="
M253.750000,0.999999 
	C298.810760,44.311127 343.620880,87.622902 388.432648,130.932999 
	C402.212738,144.251312 415.957489,157.606705 429.820557,170.838104 
	C432.026367,172.943405 433.092438,175.022644 433.089172,178.171570 
	C433.003754,260.502472 432.984100,342.833557 433.131256,425.164337 
	C433.138672,429.311218 431.575439,429.579010 428.243652,429.569427 
	C393.911530,429.470673 359.578949,429.466736 325.246613,429.521332 
	C294.426910,429.570343 263.606628,429.645508 232.788666,429.932037 
	C228.791183,429.969177 227.914459,428.844330 227.926590,424.992554 
	C228.065247,380.994171 227.980423,336.995087 228.085648,292.996552 
	C228.093338,289.778595 227.369598,288.166534 224.155731,286.801483 
	C212.299881,281.765869 202.201248,274.315887 195.029480,263.372070 
	C179.343658,239.436218 184.430069,208.728210 206.936813,190.922897 
	C213.106445,186.042038 219.772446,182.132797 227.259033,179.570038 
	C228.714188,180.839417 228.028122,182.428665 228.033371,183.784027 
	C228.092072,198.950073 228.484894,214.131226 227.943634,229.278137 
	C227.483765,242.146896 233.906693,249.163086 246.655334,251.542221 
	C254.662033,253.036423 262.957886,252.996506 270.563538,248.937820 
	C277.394165,245.292755 281.276367,240.090836 281.126465,231.811829 
	C280.813354,214.521362 281.031647,197.221268 281.031647,179.273895 
	C297.994751,185.459335 310.792267,195.588165 318.199951,211.689407 
	C329.379974,235.990128 320.787292,264.587830 297.893311,279.699890 
	C293.748840,282.435608 289.299408,284.770264 284.799683,286.883118 
	C282.250275,288.080261 281.104706,289.308868 281.120819,292.340363 
	C281.261444,318.838928 281.269806,345.338898 281.120544,371.837341 
	C281.100800,375.343048 282.047546,376.261169 285.534851,376.245148 
	C315.533417,376.107269 345.533142,376.106689 375.531708,376.246063 
	C379.013489,376.262238 379.945038,375.365936 379.938049,371.854492 
	C379.824890,314.689575 379.839966,257.524353 379.912903,200.359314 
	C379.916412,197.612366 379.039734,195.751755 377.084320,193.870819 
	C337.210938,155.516220 297.361084,117.136818 257.657074,78.607254 
	C254.824493,75.858467 253.566620,76.407204 251.116043,78.780701 
	C211.494354,117.155907 171.798798,155.454941 132.053162,193.701813 
	C129.948715,195.726898 129.132111,197.768982 129.135849,200.661896 
	C129.209534,257.660278 129.235489,314.658905 129.092163,371.657013 
	C129.082382,375.547821 130.205307,376.354675 133.842194,376.253021 
	C143.167999,375.992371 152.507416,376.258270 161.838104,376.109039 
	C164.584000,376.065155 165.620850,376.749084 165.596924,379.681519 
	C165.470505,395.180054 165.482681,410.680573 165.589310,426.179413 
	C165.607666,428.848175 164.706436,429.563263 162.132904,429.556152 
	C134.467194,429.479706 106.800995,429.460632 79.135544,429.575165 
	C76.209305,429.587280 75.911522,428.380920 75.969444,426.015686 
	C76.095901,420.852356 76.000214,415.683624 76.000229,410.517120 
	C76.000420,333.352509 76.024910,256.187897 75.931358,179.023407 
	C75.926781,175.247513 76.984673,172.602707 79.749695,169.947678 
	C130.474258,121.241302 181.128922,72.461914 231.705063,23.601398 
	C239.009216,16.545034 245.832352,8.990756 252.939041,1.333447 
	C253.000000,1.000000 253.500000,1.000000 253.750000,0.999999 
z"/>
<path fill="#0D0D0D" opacity="1.000000" stroke="none" 
	d="
M409.026520,479.863586 
	C410.120728,476.855347 411.122406,474.218903 412.115631,471.579224 
	C414.576019,465.039917 416.601471,464.008392 423.522278,465.085846 
	C425.775665,465.436646 425.650238,466.731201 425.651703,468.232574 
	C425.660583,477.223785 425.592224,486.215637 425.682739,495.205933 
	C425.729492,499.852814 422.316376,497.616516 420.336334,497.961395 
	C418.140656,498.343750 416.014771,498.390472 416.298340,494.871979 
	C416.602631,491.096558 416.367035,487.277649 415.472168,483.284576 
	C414.059357,487.237305 412.342957,491.114471 411.333984,495.167694 
	C410.585785,498.173462 408.776306,498.092346 406.527740,498.046021 
	C404.368408,498.001495 402.405365,498.376770 401.651581,495.280121 
	C400.700592,491.373291 399.031586,487.641235 396.463196,483.990601 
	C396.463196,487.687958 396.279327,491.396912 396.511749,495.079620 
	C396.776489,499.274933 393.799225,497.932434 391.811890,497.966705 
	C389.765045,498.002014 387.042877,499.135406 387.151184,494.991150 
	C387.385986,486.006073 387.270691,477.010193 387.190277,468.019714 
	C387.171051,465.871002 387.926910,465.233459 390.070099,465.087097 
	C398.101227,464.538544 398.082367,464.452789 401.048309,472.172333 
	C402.770996,476.655975 404.542267,481.120972 406.493561,486.110504 
	C407.440674,483.826233 408.185394,482.030029 409.026520,479.863586 
z"/>
<path fill="#040404" opacity="1.000000" stroke="none" 
	d="
M242.858673,481.836975 
	C244.273895,478.055450 245.584351,474.653198 246.871414,471.242126 
	C249.080170,465.388367 252.419403,463.706146 258.399475,465.125000 
	C260.051971,465.517090 260.031982,466.457092 260.033142,467.616913 
	C260.042480,476.929993 259.975800,486.243713 260.069244,495.555847 
	C260.109680,499.588287 257.155701,497.879486 255.491669,497.888916 
	C253.824860,497.898376 250.826645,499.562195 250.941650,495.532898 
	C251.063583,491.261047 250.969040,486.983002 250.164398,482.496338 
	C248.700607,486.764954 247.068985,490.985687 245.832718,495.319244 
	C245.025192,498.149902 243.149200,498.014984 240.923294,498.059753 
	C238.607513,498.106354 236.864944,497.987122 236.088776,495.209900 
	C234.896301,490.943085 233.301758,486.788635 230.984573,482.623047 
	C230.984573,486.744751 230.749710,490.883636 231.050217,494.983307 
	C231.354507,499.134338 228.521271,498.005219 226.494827,497.947845 
	C224.548889,497.892761 221.713974,499.335815 221.826538,495.093475 
	C222.064621,486.119324 221.974197,477.133392 221.850586,468.154633 
	C221.816620,465.687561 222.727676,465.174347 225.028793,465.106476 
	C232.653656,464.881531 232.644211,464.780853 235.501175,472.110291 
	C237.214401,476.505554 238.951431,480.891541 240.984543,486.061829 
	C241.844772,484.179047 242.294067,483.195679 242.858673,481.836975 
z"/>
<path fill="#060606" opacity="1.000000" stroke="none" 
	d="
M320.961853,488.955688 
	C320.961853,490.281036 321.126617,491.153992 320.929718,491.935944 
	C320.423431,493.946472 322.427887,497.327271 319.470337,497.777374 
	C316.086731,498.292358 312.019684,499.473450 309.529022,494.774475 
	C307.017670,490.036530 303.655090,485.749786 299.805817,479.975891 
	C299.805817,486.039337 299.622772,490.612335 299.862396,495.163086 
	C300.062164,498.956482 297.455383,498.137360 295.563141,497.924408 
	C293.732452,497.718414 290.559418,499.735382 290.607147,495.377289 
	C290.707306,486.231903 290.628754,477.084595 290.648254,467.938171 
	C290.651001,466.649872 290.447083,464.906830 292.495483,465.225372 
	C295.379456,465.673889 298.793549,463.572723 301.060425,467.237549 
	C304.245392,472.386536 307.669983,477.387268 311.871765,482.185364 
	C311.871765,477.615845 312.116333,473.029419 311.801483,468.481689 
	C311.499695,464.122864 314.401794,465.269775 316.676270,465.170959 
	C319.027893,465.068787 321.234375,464.678528 321.050140,468.510132 
	C320.731018,475.146790 320.961761,481.809875 320.961853,488.955688 
z"/>
<path fill="#060606" opacity="1.000000" stroke="none" 
	d="
M180.044647,494.114563 
	C178.495102,491.239960 177.092361,488.719727 175.689606,486.199463 
	C175.395645,486.277954 175.101685,486.356476 174.807724,486.434967 
	C174.807724,488.676147 174.585297,490.944702 174.857147,493.152435 
	C175.326019,496.960236 174.107681,498.165894 170.077957,498.188477 
	C166.138931,498.210510 165.443176,496.965149 165.552765,493.409485 
	C165.808578,485.108032 165.717743,476.791992 165.585602,468.484772 
	C165.544617,465.907806 166.302353,464.946716 168.959183,465.110931 
	C172.435944,465.325836 175.937363,465.100677 179.425369,465.183258 
	C186.270599,465.345367 190.669769,468.166351 191.868057,473.050598 
	C193.136246,478.219757 191.269791,481.738434 185.222351,485.546478 
	C187.474762,489.536285 189.727798,493.527191 192.347260,498.167145 
	C187.663925,497.151337 182.592911,500.518158 180.044647,494.114563 
z"/>
<path fill="#070707" opacity="1.000000" stroke="none" 
	d="
M135.067444,496.719421 
	C135.039658,487.095154 135.131332,477.946594 134.979935,468.802124 
	C134.934616,466.065460 135.594849,464.879211 138.537552,465.119171 
	C143.491959,465.523254 148.505508,464.612671 153.443192,465.768555 
	C157.736832,466.773682 160.533218,469.249756 161.394623,473.659760 
	C162.245514,478.015961 161.032379,481.823944 157.112350,483.907288 
	C154.315308,485.393860 155.187149,486.624664 156.281982,488.438477 
	C158.049637,491.366943 159.714111,494.357697 161.375778,497.241608 
	C150.074448,501.812439 149.131226,491.728424 144.899933,485.918732 
	C143.617508,487.730164 144.188141,489.394684 144.173828,490.899658 
	C144.097473,498.928497 143.212402,499.569061 135.067444,496.719421 
z"/>
<path fill="#040404" opacity="1.000000" stroke="none" 
	d="
M363.010162,481.711517 
	C363.028503,483.174347 362.977783,484.180634 363.078064,485.171631 
	C363.374451,488.100525 365.058197,489.790833 367.972870,489.761475 
	C371.118805,489.729797 372.918152,487.907532 372.969421,484.732330 
	C373.058167,479.234985 373.211609,473.725647 372.948822,468.239960 
	C372.753143,464.154663 375.469543,465.218262 377.567474,465.200714 
	C379.695374,465.182922 382.357391,464.213226 382.157623,468.271301 
	C381.871124,474.089874 382.245483,479.940094 381.984039,485.760925 
	C381.642426,493.366882 376.048950,498.177887 367.952454,498.221008 
	C360.004303,498.263336 354.531189,493.751801 354.100586,486.239594 
	C353.748322,480.093719 354.072296,473.912048 353.940521,467.749573 
	C353.856537,463.820740 356.724609,465.258026 358.492859,465.257538 
	C360.259949,465.257080 363.147003,463.819885 363.037689,467.751862 
	C362.912720,472.247345 363.009613,476.749023 363.010162,481.711517 
z"/>
<path fill="#0A0A0A" opacity="1.000000" stroke="none" 
	d="
M124.976662,490.777985 
	C128.791122,490.416351 131.301544,490.710144 130.702423,495.306824 
	C130.416168,497.503143 129.764297,498.269623 127.705490,498.020325 
	C127.541405,498.000458 127.372368,498.025909 127.206352,498.016998 
	C121.452080,497.707672 115.658928,498.650818 109.931419,497.481293 
	C109.828415,492.006561 109.695801,486.532166 109.632050,481.056976 
	C109.583595,476.894958 109.732948,472.727905 109.581261,468.570862 
	C109.490982,466.096954 110.092026,464.968567 112.867981,465.093353 
	C117.686859,465.309937 122.529236,465.307251 127.348511,465.095245 
	C130.163605,464.971375 130.711517,466.194977 130.646271,468.632904 
	C130.583893,470.964447 130.723297,473.052094 127.358253,472.682648 
	C125.548592,472.483948 123.696350,472.710938 121.868286,472.631500 
	C120.010147,472.550751 118.723457,472.709351 118.748375,475.189911 
	C118.770706,477.413727 119.526894,478.165894 121.657677,477.952057 
	C122.976402,477.819702 124.340622,478.080200 125.646950,477.897034 
	C128.559616,477.488617 129.170227,478.743225 129.209610,481.487274 
	C129.252838,484.496307 128.081100,485.256744 125.428955,484.928955 
	C124.444977,484.807312 123.431000,484.953400 122.434799,484.900391 
	C120.334412,484.788696 118.657471,484.660370 118.709557,487.819611 
	C118.760490,490.907745 120.366898,490.925690 122.517937,490.784546 
	C123.181099,490.741058 123.849548,490.777924 124.976662,490.777985 
z"/>
<path fill="#0B0B0B" opacity="1.000000" stroke="none" 
	d="
M196.730347,465.680481 
	C202.695694,465.280487 208.348572,465.345734 213.987305,465.094086 
	C216.748276,464.970856 217.427094,466.068970 217.267349,468.563171 
	C217.128006,470.738678 217.648087,473.059937 214.130692,472.689880 
	C212.157608,472.482300 210.141754,472.721008 208.150055,472.639221 
	C206.322983,472.564148 205.469055,473.157013 205.416916,475.155426 
	C205.359283,477.362823 206.203613,478.137573 208.322998,477.945953 
	C209.642258,477.826691 210.994888,478.046936 212.308350,477.899323 
	C214.932632,477.604462 216.153580,478.257874 216.071838,481.309418 
	C215.998276,484.055542 215.365463,485.309021 212.458511,484.945068 
	C210.985367,484.760590 209.461823,485.012970 207.975510,484.891357 
	C205.984955,484.728424 205.336746,485.586853 205.434784,487.489349 
	C205.524506,489.230347 205.404175,490.909119 207.929657,490.785400 
	C209.588226,490.704163 211.261719,490.874725 212.915009,490.751282 
	C215.691345,490.544037 217.326157,490.732758 217.405136,494.509247 
	C217.493607,498.740417 215.153320,498.031250 212.720428,498.024506 
	C208.231430,498.012054 203.737991,497.902557 199.255035,498.067627 
	C196.822067,498.157227 196.140305,497.289978 196.182022,494.928467 
	C196.352249,485.292358 196.350464,475.653198 196.730347,465.680481 
z"/>
<path fill="#0B0B0B" opacity="1.000000" stroke="none" 
	d="
M278.924866,465.149597 
	C282.240479,465.708740 286.877991,463.026215 286.334930,469.476654 
	C286.103241,472.228821 285.146942,472.860809 282.726349,472.682922 
	C280.742889,472.537201 278.737274,472.723358 276.745972,472.646423 
	C274.553314,472.561707 274.463928,473.925842 274.445099,475.558929 
	C274.426270,477.189819 274.964966,478.036560 276.725494,477.938721 
	C278.216614,477.855835 279.725067,478.028229 281.209991,477.901642 
	C283.683350,477.690857 285.102417,477.974884 285.098480,481.205200 
	C285.094513,484.443848 283.936584,484.836487 281.082672,485.085236 
	C278.836426,485.280945 274.652740,482.318665 274.444214,487.878815 
	C274.364868,489.993805 275.128204,490.953186 277.320679,490.795502 
	C278.974121,490.676544 280.658722,490.918823 282.301605,490.741882 
	C285.128571,490.437408 286.356506,491.074646 286.372314,494.399445 
	C286.388214,497.737366 285.170349,498.292572 282.331573,498.055084 
	C276.761597,497.588989 269.291016,500.423492 266.131653,496.941284 
	C263.366058,493.893066 265.315521,486.541382 265.236816,481.089935 
	C265.184021,477.434235 265.448822,473.759796 265.165100,470.125488 
	C264.874390,466.401276 265.754913,464.523438 269.970947,465.080261 
	C272.747986,465.446991 275.612732,465.149597 278.924866,465.149597 
z"/>
<path fill="#0B0B0B" opacity="1.000000" stroke="none" 
	d="
M83.617485,492.753479 
	C83.617500,484.637817 83.720047,476.993958 83.566162,469.355255 
	C83.505989,466.368042 83.947159,464.805450 87.561668,465.058533 
	C92.686485,465.417358 97.861542,465.305542 103.002686,465.093292 
	C106.184387,464.961914 105.872055,466.851135 105.934113,468.915100 
	C106.001122,471.143311 105.892311,472.898254 102.881042,472.611542 
	C100.905479,472.423462 98.897400,472.579926 96.903893,472.576477 
	C94.801727,472.572815 92.637924,471.983185 92.721893,475.582733 
	C92.803230,479.069519 95.068382,477.813507 96.779541,478.185211 
	C98.889526,478.643463 102.440811,476.277130 102.402367,481.234436 
	C102.380180,484.094849 101.945915,485.774414 98.660599,485.141479 
	C93.923279,484.228790 91.880379,486.021606 92.800430,490.899597 
	C92.951721,491.701691 92.710320,492.574799 92.840935,493.384338 
	C93.417847,496.959930 92.265900,498.198242 88.367928,498.187683 
	C84.422653,498.176971 82.941154,497.065033 83.617485,492.753479 
z"/>
<path fill="#0B0B0B" opacity="1.000000" stroke="none" 
	d="
M347.643982,465.151367 
	C352.311768,464.951660 350.528381,468.148376 350.832062,470.074554 
	C351.231934,472.610779 349.383179,472.842987 347.676941,472.531372 
	C342.682159,471.619141 341.551544,473.796997 341.921326,478.434967 
	C342.355865,483.885468 341.778839,489.411438 342.098450,494.877869 
	C342.364746,499.433197 339.258301,497.822693 337.164032,497.983673 
	C334.913788,498.156616 332.594421,498.672241 332.839111,494.744568 
	C333.210480,488.783905 332.720306,482.772247 333.017426,476.803253 
	C333.194183,473.252350 332.017975,472.063782 328.596130,472.545380 
	C325.855377,472.931183 323.799316,472.644989 324.062775,468.780975 
	C324.249512,466.042236 324.850433,465.007202 327.734894,465.091919 
	C334.211761,465.282196 340.698090,465.151306 347.643982,465.151367 
z"/>
<path fill="#F1F1F1" opacity="1.000000" stroke="none" 
	d="
M175.946228,472.962311 
	C177.722687,472.978271 179.094162,472.831116 180.367218,473.119080 
	C182.234787,473.541504 183.211243,474.965302 182.830765,476.841217 
	C182.209854,479.902649 179.658478,479.675629 177.310364,479.834747 
	C175.295807,479.971283 174.554733,479.060425 174.789032,477.214264 
	C174.968384,475.801147 174.137756,474.207886 175.946228,472.962311 
z"/>
<path fill="#ECECEC" opacity="1.000000" stroke="none" 
	d="
M150.456787,473.254517 
	C152.709961,474.983582 152.924210,477.002594 151.432327,478.626373 
	C149.871292,480.325409 147.362167,480.243286 145.367966,479.637024 
	C143.013718,478.921326 143.985001,476.468658 144.201431,474.958069 
	C144.798935,470.787384 148.105240,473.814362 150.456787,473.254517 
z"/>
</svg>