<svg version="1.1" id="Layer_1" xmlns="http://www.w3.org/2000/svg" xmlns:xlink="http://www.w3.org/1999/xlink" x="0px" y="0px"
	 width="100%" viewBox="0 0 500 500" enable-background="new 0 0 500 500" xml:space="preserve">
<path fill="#FF7C0B" opacity="1.000000" stroke="none" 
	d="
M253.886917,1.420761 
	C334.982239,1.000000 415.964539,1.024503 496.946625,0.912151 
	C500.252655,0.907564 501.103577,1.411697 501.101074,4.945061 
	C500.984802,168.909027 500.981262,332.873108 501.114777,496.837067 
	C501.117889,500.683777 500.029785,501.078308 496.664673,501.076508 
	C332.867279,500.989014 169.069839,500.986176 5.272483,501.091675 
	C1.730550,501.093933 0.895655,500.444000 0.898289,496.774231 
	C1.015849,332.976868 1.018768,169.179413 0.889512,5.382094 
	C0.886348,1.372287 2.083181,0.914295 5.616125,0.918810 
	C87.764877,1.023806 169.913803,1.000000 252.531342,1.000000 
	C254.052475,3.488153 252.529404,5.092306 251.050888,6.724860 
	C233.144638,26.496624 213.549667,44.555351 194.154358,62.816486 
	C193.426300,63.501972 192.678528,64.168167 191.986160,64.888885 
	C176.976044,80.513611 160.946884,95.097397 145.431076,110.202545 
	C126.816925,128.324036 108.446457,146.748535 89.147247,164.101135 
	C80.725456,171.673462 78.139725,179.258453 78.192482,190.020599 
	C78.563316,265.681366 78.385880,341.344818 78.391930,417.007385 
	C78.392761,427.465515 78.537376,427.605957 89.013405,427.608368 
	C111.012215,427.613464 133.011047,427.634949 155.009811,427.596436 
	C162.712418,427.582947 163.565842,426.705811 163.596939,418.916809 
	C163.639526,408.250854 163.642868,397.584534 163.595459,386.918610 
	C163.561401,379.259399 162.703506,378.450714 154.849442,378.397308 
	C148.349991,378.353088 141.849045,378.481689 135.351044,378.336670 
	C127.815300,378.168488 126.843636,377.145386 126.652267,369.459351 
	C126.561005,365.793945 126.612236,362.126709 126.612244,358.460297 
	C126.612396,307.629700 126.748444,256.798309 126.466347,205.969345 
	C126.422562,198.079285 128.149139,191.959274 135.084991,187.803619 
	C136.075394,187.210220 136.858826,186.290298 137.666000,185.449219 
	C153.014999,169.455917 169.407410,154.528076 185.275421,139.067596 
	C205.434158,119.426575 225.931000,100.129547 245.902893,80.292076 
	C247.333755,78.870819 249.051498,77.833611 250.599060,76.575104 
	C253.405624,74.292755 255.985382,74.472542 258.623138,76.889961 
	C262.672791,80.601357 267.015839,83.974701 270.841125,87.952263 
	C285.280243,102.966110 300.698395,116.983406 315.607422,131.518158 
	C334.447266,149.885040 353.645447,167.888504 372.315552,186.435852 
	C372.788483,186.905640 372.122070,186.444214 372.683228,186.767639 
	C381.560944,191.884109 382.619995,199.900406 382.556152,209.360138 
	C382.204132,261.521637 382.401154,313.686707 382.379669,365.850555 
	C382.374573,378.248566 382.244446,378.369904 369.773346,378.380554 
	C343.608093,378.402893 317.442841,378.392395 291.277588,378.383362 
	C288.944824,378.382538 286.613708,378.360413 284.283020,378.189819 
	C280.945312,377.945496 279.095184,376.262360 278.826904,372.875336 
	C278.681976,371.045197 278.624115,369.214691 278.622620,367.381561 
	C278.603424,344.049500 278.859436,320.713226 278.471497,297.387848 
	C278.348694,290.001801 280.858826,285.877289 287.592194,282.800507 
	C300.571350,276.869781 310.497345,267.288757 316.366608,254.143738 
	C325.917328,232.753586 319.171875,207.391678 300.326996,192.601761 
	C297.051514,190.031113 293.744537,187.481155 289.919891,185.731857 
	C285.115234,183.534332 283.492889,184.454315 283.437927,189.786438 
	C283.300507,203.118088 283.016235,216.465515 283.497040,229.779770 
	C283.947327,242.250305 279.118225,249.928848 264.132294,253.493256 
	C254.882904,255.693253 245.302292,255.404633 236.439987,250.424332 
	C229.364258,246.448029 225.770706,240.595383 225.672974,232.587433 
	C225.512314,219.422409 225.638626,206.255890 225.609940,193.090042 
	C225.606674,191.590210 225.689590,190.082886 225.537140,188.592499 
	C225.150406,184.810989 223.587326,183.653641 220.251938,185.274719 
	C193.701691,198.178741 180.978653,227.711426 192.659866,253.886856 
	C198.730743,267.490570 208.935089,277.070221 222.169846,283.130066 
	C228.746262,286.141266 230.547409,290.238342 230.506531,297.049469 
	C230.268478,336.712433 230.383438,376.377747 230.390335,416.042267 
	C230.390671,418.041992 230.406235,420.041473 230.440689,422.041290 
	C230.504257,425.729279 232.355240,427.541748 236.033081,427.566925 
	C237.532669,427.577179 239.032455,427.609436 240.532303,427.609497 
	C300.529053,427.611847 360.525818,427.612030 420.522583,427.608948 
	C422.188934,427.608887 423.855133,427.610840 425.521027,427.534668 
	C428.740845,427.387360 430.369293,425.683289 430.529633,422.496490 
	C430.613434,420.830872 430.608734,419.164551 430.608795,417.498199 
	C430.611816,339.835724 430.555450,262.173126 430.716064,184.510986 
	C430.729126,178.205826 428.924835,173.593018 424.430847,169.077530 
	C408.562012,153.132812 392.101532,137.802612 376.013153,122.090225 
	C356.236145,102.775482 336.332001,83.582664 316.402435,64.422676 
	C296.471252,45.261185 276.412994,26.234005 256.840546,6.703487 
	C255.464401,5.330279 253.482300,4.287932 253.886917,1.420761 
z"/>
<path fill="#F5F4F4" opacity="1.000000" stroke="none" 
	d="
M253.750000,1.000001 
	C298.811432,44.312870 343.622406,87.626190 388.434509,130.938339 
	C402.094574,144.141174 415.710327,157.390503 429.463257,170.495926 
	C431.930389,172.846893 433.093292,175.211685 433.089417,178.708389 
	C432.998230,260.703491 432.986206,342.698761 433.115387,424.693756 
	C433.121796,428.774933 431.848297,429.598938 428.067749,429.587860 
	C386.737122,429.466919 345.406006,429.475677 304.075104,429.526398 
	C280.252991,429.555634 256.430084,429.640625 232.610138,429.919861 
	C228.818375,429.964294 227.916641,428.876984 227.927902,425.170807 
	C228.059509,381.840363 227.929474,338.508942 228.130051,295.179047 
	C228.152023,290.435028 227.058136,287.971893 222.463699,285.930817 
	C205.728836,278.496338 193.490814,266.471100 188.037323,248.602219 
	C181.717834,227.895859 189.494797,204.729004 206.952255,190.923141 
	C212.207520,186.767136 217.896255,183.432648 224.040482,180.714493 
	C227.710678,179.090836 228.143845,180.239609 228.118591,183.600082 
	C228.003342,198.931671 228.545975,214.283691 227.934006,229.591675 
	C227.324524,244.837845 237.751755,250.444305 247.974625,251.781097 
	C255.539169,252.770264 263.305847,252.837784 270.441284,249.005585 
	C277.268280,245.339050 281.275635,240.220169 281.119965,231.928146 
	C280.822815,216.101303 281.027802,200.264923 281.038757,184.432495 
	C281.042511,179.025009 281.101044,178.940582 286.127075,181.251495 
	C305.260651,190.048935 318.797363,203.752228 322.214844,225.187973 
	C325.933075,248.510178 316.285858,266.344238 297.672150,279.850098 
	C293.492157,282.883057 288.875305,285.264435 284.098724,287.237091 
	C281.946899,288.125763 281.145172,289.342407 281.152130,291.711700 
	C281.231232,318.709900 281.229279,345.708496 281.160980,372.706757 
	C281.154510,375.265350 281.926147,376.210236 284.563934,376.204559 
	C315.228668,376.138580 345.893829,376.112366 376.558289,376.225189 
	C380.353333,376.239136 379.865875,374.001587 379.865173,371.665405 
	C379.857086,345.333588 379.860352,319.001770 379.860413,292.669952 
	C379.860474,262.171692 379.814819,231.673279 379.926331,201.175446 
	C379.938324,197.896576 378.951019,195.637421 376.583618,193.362717 
	C337.049652,155.376358 297.571991,117.331123 258.199432,79.177612 
	C255.397339,76.462288 253.973404,75.939301 250.857544,78.965462 
	C211.408279,117.279160 171.810074,155.439667 132.176819,193.563324 
	C129.922318,195.731949 129.130310,197.950531 129.134323,201.005295 
	C129.208557,257.668610 129.233841,314.332153 129.095871,370.995239 
	C129.085770,375.145172 130.182541,376.397430 134.340927,376.260437 
	C143.497101,375.958832 152.671631,376.261444 161.835358,376.112976 
	C164.677399,376.066925 165.593872,377.028198 165.577011,379.824738 
	C165.484589,395.156616 165.480591,410.489685 165.581009,425.821503 
	C165.599426,428.634521 164.673386,429.566650 161.845749,429.558197 
	C134.347565,429.476074 106.848999,429.480743 79.350746,429.545746 
	C76.751755,429.551910 75.874092,428.702179 75.953644,426.090759 
	C76.121010,420.596222 75.999649,415.092957 75.999672,409.593262 
	C75.999992,332.931000 76.020699,256.268707 75.943344,179.606537 
	C75.939438,175.733475 76.749619,172.811981 79.723076,169.958298 
	C130.460510,121.264488 181.110016,72.478821 231.683044,23.614193 
	C238.987167,16.556810 245.795776,8.986593 252.916840,1.326847 
	C253.000000,1.000000 253.500000,1.000000 253.750000,1.000001 
z"/>
<path fill="#F5EFE9" opacity="1.000000" stroke="none" 
	d="
M409.038025,479.839111 
	C410.497772,475.900055 411.954498,472.358612 413.170349,468.736328 
	C414.010010,466.234772 415.233459,465.054413 418.150269,465.065247 
	C425.652740,465.093079 425.653931,464.919952 425.654877,472.524536 
	C425.655701,479.019958 425.604828,485.515900 425.675537,492.010559 
	C425.712402,495.396576 426.293182,498.232697 420.890320,498.244415 
	C415.118896,498.256897 416.535278,494.845154 416.359436,491.766754 
	C416.211304,489.173737 416.813232,486.527161 415.588409,482.872559 
	C414.156708,486.973816 412.952850,490.143738 411.950958,493.376282 
	C411.073029,496.209167 410.243225,498.219025 406.357513,498.210876 
	C402.335571,498.202454 401.843292,495.839905 400.963501,493.150726 
	C399.993958,490.187225 398.905396,487.262634 397.489838,483.246216 
	C395.842499,487.687897 396.393860,491.254608 396.544495,494.657928 
	C396.711060,498.420593 394.458679,498.090637 392.085449,498.024597 
	C389.709412,497.958466 387.039307,498.823853 387.157684,494.606079 
	C387.400574,485.952332 387.294708,477.286285 387.191589,468.626953 
	C387.161316,466.082458 387.990204,465.188385 390.619415,465.087433 
	C398.197327,464.796326 398.188995,464.674103 400.944580,471.831482 
	C402.673035,476.321075 404.414124,480.805756 406.219391,485.473267 
	C408.044586,483.962555 408.034393,481.849396 409.038025,479.839111 
z"/>
<path fill="#F5F3F1" opacity="1.000000" stroke="none" 
	d="
M242.873993,481.746765 
	C244.636292,477.036957 246.437912,472.741516 247.878723,468.328308 
	C248.695602,465.826202 250.034027,465.057678 252.588303,465.124176 
	C261.763489,465.363068 259.886688,464.328094 260.017090,472.458588 
	C260.134399,479.774170 259.782562,487.105835 260.141571,494.405640 
	C260.343994,498.521515 258.011383,498.007446 255.484360,498.029022 
	C252.905029,498.051025 250.480484,498.423004 250.889832,494.363770 
	C251.264740,490.646240 250.969437,486.861115 250.065369,482.911469 
	C248.716919,486.724945 247.149948,490.478943 246.091187,494.371246 
	C245.287857,497.324493 243.762894,498.103607 240.822571,498.123260 
	C237.978226,498.142242 236.680847,497.228790 235.916077,494.555542 
	C234.790634,490.621399 233.287018,486.795441 230.982162,483.013245 
	C230.982162,486.850555 230.734756,490.708527 231.053513,494.519135 
	C231.356659,498.142853 229.347626,498.234436 226.801605,498.005615 
	C224.579010,497.805847 221.699509,499.128998 221.826050,494.738922 
	C222.079865,485.932007 221.959839,477.112061 221.865845,468.298859 
	C221.840469,465.919952 222.710114,465.232208 225.049225,465.117126 
	C232.587067,464.746368 232.582901,464.642181 235.343201,471.748016 
	C236.725571,475.306641 238.062027,478.884094 239.514389,482.413879 
	C239.863159,483.261475 239.835831,484.734436 241.013245,484.726349 
	C242.485825,484.716278 242.039520,482.917145 242.873993,481.746765 
z"/>
<path fill="#F5F2EF" opacity="1.000000" stroke="none" 
	d="
M320.957520,488.945190 
	C320.957520,490.269958 321.114227,491.140015 320.926849,491.928253 
	C320.445587,493.953033 322.404938,497.326172 319.310913,497.774536 
	C316.064301,498.245056 312.130890,499.491272 309.695465,494.985596 
	C307.254791,490.470123 304.032593,486.376984 301.148834,482.101501 
	C301.057068,481.965515 300.920380,481.859863 300.327423,481.246277 
	C299.321686,485.951782 299.724792,490.335175 299.884613,494.621124 
	C300.043427,498.880127 297.276520,497.906891 294.933655,498.013489 
	C292.501282,498.124146 290.441376,498.308807 290.560730,494.599884 
	C290.823120,486.447235 290.556915,478.278687 290.707275,470.120331 
	C290.738373,468.434296 289.372711,465.458923 292.492126,465.349518 
	C295.365967,465.248688 298.815857,463.657898 301.079132,467.290710 
	C304.218658,472.330078 307.560547,477.243378 311.874298,481.996185 
	C311.874298,477.618286 312.120361,473.222351 311.801605,468.867767 
	C311.512482,464.918457 313.824005,465.167877 316.468109,465.127136 
	C319.235291,465.084503 321.224335,465.147186 321.041687,468.970337 
	C320.732056,475.451172 320.957184,481.957520 320.957520,488.945190 
z"/>
<path fill="#F5F2EF" opacity="1.000000" stroke="none" 
	d="
M180.048035,494.111511 
	C178.550110,491.352478 177.209854,488.939819 175.869583,486.527130 
	C175.514557,486.583435 175.159531,486.639740 174.804504,486.696045 
	C174.804504,488.744446 174.810913,490.792908 174.803207,492.841278 
	C174.785965,497.429565 170.786545,499.892517 166.725403,497.893005 
	C165.280441,497.181610 165.674622,495.943024 165.669128,494.886871 
	C165.623260,486.056152 165.727570,477.223877 165.595459,468.394928 
	C165.553726,465.605469 166.780548,465.025909 169.214508,465.133820 
	C172.540466,465.281219 175.878906,465.117737 179.209930,465.187164 
	C185.967346,465.327881 190.176300,467.811890 191.660706,472.440918 
	C193.315292,477.600525 191.548141,481.314240 185.303986,485.662262 
	C187.478119,489.532166 189.658615,493.413361 192.207672,497.950623 
	C187.531006,497.350769 182.683578,500.398315 180.048035,494.111511 
z"/>
<path fill="#F5F2EF" opacity="1.000000" stroke="none" 
	d="
M135.124390,496.636353 
	C135.057693,487.354584 135.253967,478.533356 134.947296,469.729614 
	C134.811890,465.841675 136.148514,464.786560 139.769470,465.116577 
	C144.060806,465.507721 148.413010,464.755127 152.700974,465.598358 
	C157.150024,466.473358 160.349838,468.752258 161.327164,473.431915 
	C162.278580,477.987427 160.955856,481.738770 156.876602,484.089325 
	C154.869553,485.245850 154.929932,486.226105 156.003357,487.961060 
	C157.887436,491.006165 159.566193,494.178284 161.258743,497.169617 
	C149.967880,501.951660 149.215790,491.738708 144.860001,485.912476 
	C143.723740,488.494293 143.959991,490.666992 144.211075,492.640442 
	C144.763260,496.980560 143.309250,498.886780 138.833145,498.019409 
	C137.597305,497.779907 136.126266,498.508728 135.124390,496.636353 
z"/>
<path fill="#F5F3F1" opacity="1.000000" stroke="none" 
	d="
M363.009155,481.707245 
	C363.030426,483.167267 362.977448,484.172668 363.086700,485.160065 
	C363.408203,488.066620 365.068268,489.778198 367.991760,489.738190 
	C371.148804,489.694977 372.903076,487.833740 372.959473,484.681366 
	C373.054657,479.361206 373.210693,474.028320 372.945892,468.720490 
	C372.770264,465.199738 374.609131,464.983307 377.220581,465.158234 
	C379.573425,465.315857 382.357452,464.336884 382.150696,468.572601 
	C381.875336,474.214050 382.235596,479.885406 381.995819,485.530029 
	C381.661407,493.403137 376.035095,498.253876 367.686707,498.211609 
	C359.598999,498.170685 354.365814,493.421570 354.048126,485.483398 
	C353.822205,479.837769 354.180725,474.167023 353.907837,468.525452 
	C353.700012,464.229584 356.566223,465.360840 358.867157,465.160187 
	C361.553375,464.925964 363.315826,465.310455 363.075653,468.776184 
	C362.788910,472.913910 363.008667,477.086761 363.009155,481.707245 
z"/>
<path fill="#F5F0EC" opacity="1.000000" stroke="none" 
	d="
M124.978767,490.779358 
	C128.412064,490.611786 131.151474,490.440155 130.682434,494.960358 
	C130.436981,497.325928 129.736420,498.123077 127.393326,498.056976 
	C122.567261,497.920929 117.728554,497.871277 112.907089,498.073364 
	C110.150032,498.188904 109.560867,497.037689 109.589760,494.576172 
	C109.691429,485.916809 109.684494,477.255005 109.596466,468.595337 
	C109.571068,466.096466 110.320908,465.009003 113.010986,465.109955 
	C117.834137,465.291077 122.673180,465.286255 127.497246,465.118958 
	C130.485641,465.015320 130.592636,466.726593 130.629196,468.927612 
	C130.667755,471.248260 130.260544,472.849701 127.397377,472.667419 
	C125.242340,472.530212 123.069565,472.685333 120.904686,472.685150 
	C119.047836,472.685028 118.825584,473.875641 118.823975,475.350006 
	C118.822319,476.861816 119.132622,477.975647 120.985214,477.920197 
	C122.482559,477.875366 123.998581,478.064758 125.478149,477.898956 
	C128.275391,477.585449 129.186020,478.608276 129.201462,481.488190 
	C129.218048,484.584442 127.823418,484.890533 125.274918,485.008392 
	C123.174652,485.105560 120.397926,483.494843 118.995247,486.206665 
	C117.414680,489.262360 119.271446,490.731842 124.978767,490.779358 
z"/>
<path fill="#F5F0EA" opacity="1.000000" stroke="none" 
	d="
M196.820923,465.767761 
	C202.771545,465.344147 208.413208,465.357269 214.043961,465.115845 
	C216.919601,464.992554 217.315491,466.459564 217.255157,468.786133 
	C217.200043,470.912323 217.293213,472.857056 214.252090,472.664886 
	C212.267792,472.539490 210.267242,472.697723 208.275162,472.662048 
	C206.491516,472.630127 205.480911,473.247437 205.488525,475.223938 
	C205.495590,477.060364 206.145782,478.029877 208.106720,477.926056 
	C209.431396,477.855957 210.769028,478.002533 212.090652,477.908508 
	C214.530716,477.735016 216.056976,478.006470 216.081757,481.236786 
	C216.107529,484.597565 214.657730,485.192871 211.888626,484.933472 
	C210.572144,484.810120 209.230911,484.978790 207.905396,484.917694 
	C205.827469,484.821899 205.447922,486.040680 205.477386,487.756439 
	C205.506027,489.423248 205.812637,490.756714 207.880142,490.752228 
	C209.706985,490.748260 211.552948,490.939392 213.356445,490.738708 
	C216.439590,490.395599 217.318069,491.600433 217.326202,494.652405 
	C217.334518,497.776367 215.931290,498.227722 213.398666,498.038879 
	C207.833145,497.623932 200.707733,500.339355 197.124847,496.889618 
	C193.996292,493.877380 196.349777,486.796753 196.267654,481.516968 
	C196.187744,476.380188 196.415054,471.238586 196.820923,465.767761 
z"/>
<path fill="#F5F0EA" opacity="1.000000" stroke="none" 
	d="
M278.904846,465.154541 
	C282.397858,465.535187 286.973602,463.349213 286.281006,469.651886 
	C286.057404,471.686707 285.569031,472.742371 283.374054,472.657745 
	C281.212280,472.574402 279.043457,472.689911 276.877869,472.683624 
	C275.210022,472.678772 274.524139,473.499573 274.498993,475.135468 
	C274.471527,476.922333 275.015686,478.015900 277.032532,477.922882 
	C278.362274,477.861511 279.701538,477.988251 281.029602,477.911316 
	C283.408234,477.773468 285.068054,477.882812 285.082733,481.196167 
	C285.097504,484.529907 283.726379,485.213501 280.907318,484.934570 
	C279.588043,484.804047 278.241394,484.979492 276.911774,484.917419 
	C274.825806,484.820099 274.449677,486.042999 274.476624,487.764252 
	C274.503021,489.447205 274.834106,490.761749 276.902161,490.753815 
	C278.901337,490.746185 280.918640,490.944702 282.895813,490.740784 
	C286.140869,490.406036 286.202179,492.283081 286.285339,494.711761 
	C286.376892,497.383942 285.382019,498.160614 282.816284,498.067444 
	C278.157349,497.898254 273.485687,497.934723 268.823730,498.055603 
	C266.440552,498.117371 265.139984,497.656219 265.184906,494.826355 
	C265.325073,485.998291 265.283447,477.166199 265.207367,468.336578 
	C265.187103,465.985565 266.054840,465.042267 268.426300,465.129547 
	C271.753906,465.252045 275.089508,465.156677 278.904846,465.154541 
z"/>
<path fill="#F5EFEA" opacity="1.000000" stroke="none" 
	d="
M83.620125,492.719849 
	C83.621017,484.448090 83.702324,476.645477 83.579178,468.846130 
	C83.536247,466.126862 84.312744,464.976929 87.231705,465.098969 
	C92.202599,465.306732 97.191910,465.266754 102.166664,465.111847 
	C104.869843,465.027649 105.954041,465.787933 106.000420,468.718079 
	C106.050301,471.869263 104.888519,472.852570 101.946243,472.607361 
	C99.968575,472.442535 97.960548,472.673096 95.974754,472.566193 
	C93.653236,472.441193 92.747688,473.324158 92.787094,475.727783 
	C92.829315,478.303223 94.452126,477.935028 96.112427,478.208191 
	C98.533257,478.606445 102.498848,476.172211 102.408119,481.694122 
	C102.358665,484.703369 101.180359,485.590790 98.569969,485.119049 
	C93.520927,484.206604 92.054977,486.566040 92.804245,491.149017 
	C92.909966,491.795685 92.751190,492.482666 92.829987,493.137115 
	C93.227066,496.434906 92.635117,498.246796 88.466751,498.183563 
	C84.560829,498.124359 82.981911,497.063690 83.620125,492.719849 
z"/>
<path fill="#F5F0EB" opacity="1.000000" stroke="none" 
	d="
M347.591217,465.160156 
	C352.108185,465.087280 350.634644,468.162537 350.812134,470.175690 
	C351.036469,472.720154 349.041412,472.785645 347.425446,472.519379 
	C342.454346,471.700256 341.719391,474.241821 341.948425,478.424011 
	C342.248322,483.900085 341.826202,489.414185 342.084137,494.894531 
	C342.272644,498.899994 339.633209,497.995056 337.484558,497.994232 
	C335.335388,497.993408 332.706757,498.897736 332.872589,494.896759 
	C333.120544,488.915253 332.820618,482.912689 332.982147,476.925232 
	C333.062347,473.952667 332.585175,472.075012 328.989014,472.545593 
	C326.077484,472.926575 323.929901,472.639648 324.056763,468.515594 
	C324.186707,464.291229 326.829529,465.195251 329.158142,465.174591 
	C335.149536,465.121399 341.141663,465.157104 347.591217,465.160156 
z"/>
<path fill="#FE8317" opacity="1.000000" stroke="none" 
	d="
M176.035950,473.020996 
	C177.452148,472.961945 178.436752,472.908051 179.410980,472.985168 
	C181.752777,473.170532 183.140182,474.453766 182.784821,476.821991 
	C182.374985,479.553253 180.091522,479.649658 177.892914,479.820770 
	C175.551666,480.002960 174.533371,479.042480 174.780411,476.728943 
	C174.913223,475.485046 174.346237,474.078888 176.035950,473.020996 
z"/>
<path fill="#FE851B" opacity="1.000000" stroke="none" 
	d="
M150.434235,473.293152 
	C152.678543,475.042480 152.901535,477.062134 151.326385,478.657562 
	C149.720062,480.284546 147.207123,480.332703 145.241318,479.517822 
	C143.110901,478.634705 143.831314,476.144531 144.253464,474.669861 
	C145.169006,471.471619 147.998535,473.347168 150.434235,473.293152 
z"/>
</svg>